<svg id="svg" version="1.1" xmlns="http://www.w3.org/2000/svg" xmlns:xlink="http://www.w3.org/1999/xlink" width="400" height="400" viewBox="0, 0, 400,400"><g id="svgg"><path id="path0" d="M203.906 131.934 C 200.120 133.826,200.403 139.576,204.378 141.526 C 207.586 143.099,211.719 140.518,211.719 136.941 C 211.719 132.358,207.925 129.927,203.906 131.934 M241.959 134.149 C 236.187 136.662,238.963 145.907,245.142 144.748 C 246.871 144.423,249.396 141.983,249.730 140.315 C 250.570 136.116,245.918 132.425,241.959 134.149 M175.781 198.492 C 175.244 198.710,170.586 199.917,165.430 201.175 C 133.574 208.949,119.003 215.008,108.621 224.800 C 100.156 232.783,95.336 240.710,88.835 257.336 C 87.179 261.573,84.609 268.097,83.125 271.835 C 81.641 275.572,80.568 278.758,80.741 278.914 C 81.140 279.276,87.337 281.641,87.885 281.641 C 88.111 281.641,94.664 284.176,102.449 287.274 C 110.233 290.373,118.184 293.521,120.117 294.272 C 122.051 295.022,125.033 296.253,126.744 297.008 C 129.886 298.394,130.469 298.461,130.469 297.438 C 130.469 297.128,130.674 296.875,130.924 296.875 C 131.175 296.875,131.270 296.764,131.134 296.629 C 130.999 296.494,131.585 295.030,132.436 293.377 C 133.288 291.723,133.984 290.164,133.984 289.912 C 133.984 289.660,134.145 289.453,134.341 289.453 C 134.828 289.453,134.906 316.352,134.421 316.937 C 134.178 317.229,134.247 317.656,134.619 318.165 C 135.178 318.929,135.769 318.949,163.591 319.141 L 191.992 319.336 194.727 317.917 C 200.856 314.735,200.801 314.804,197.949 313.875 C 170.716 305.010,162.577 266.535,183.310 244.672 C 193.892 233.514,211.831 229.863,224.507 236.289 C 229.557 238.849,229.472 238.397,225.630 242.239 C 221.846 246.022,221.162 247.311,219.928 252.988 C 219.468 255.104,218.408 260.000,217.571 263.867 C 214.951 275.985,211.557 290.947,208.364 304.453 C 207.201 309.373,206.250 314.031,206.251 314.804 C 206.252 315.578,205.468 319.463,204.509 323.438 C 202.933 329.975,201.011 338.435,199.806 344.141 L 199.352 346.289 174.455 346.379 C 144.625 346.486,146.774 346.010,146.172 352.647 L 145.898 355.664 140.300 355.773 L 134.701 355.881 134.973 357.530 C 135.123 358.438,135.328 359.268,135.429 359.375 C 135.529 359.482,168.752 359.613,209.256 359.665 L 282.900 359.761 286.860 357.559 C 311.081 344.094,326.776 331.101,342.237 311.719 C 348.017 304.473,349.650 301.815,350.234 298.707 C 350.525 297.163,351.015 294.997,351.324 293.894 C 351.632 292.792,352.700 287.958,353.697 283.152 C 354.694 278.346,356.099 271.689,356.821 268.359 C 361.253 247.895,360.146 242.447,350.586 237.690 L 348.242 236.523 322.548 236.328 L 296.854 236.133 295.140 233.841 C 284.722 219.912,267.708 210.179,240.487 202.574 C 233.852 200.721,234.375 200.564,234.375 204.415 C 234.375 215.523,220.842 222.331,202.014 220.695 C 186.634 219.358,178.137 212.957,177.480 202.211 C 177.340 199.921,177.120 198.058,176.991 198.072 C 176.863 198.085,176.318 198.274,175.781 198.492 M272.678 269.933 C 275.204 271.285,275.174 276.628,272.633 277.942 C 268.657 279.998,264.874 275.970,266.972 271.914 C 267.938 270.046,270.940 269.004,272.678 269.933 M285.780 270.442 C 287.162 271.630,287.589 275.187,286.541 276.786 C 284.945 279.221,281.683 279.205,279.753 276.752 C 276.757 272.943,282.138 267.308,285.780 270.442 M254.457 271.124 C 256.130 273.111,255.803 276.949,253.876 277.945 C 251.284 279.286,248.117 278.166,247.275 275.613 C 245.919 271.505,251.725 267.876,254.457 271.124 M263.587 280.688 C 266.482 282.715,266.166 287.605,263.057 288.905 C 258.889 290.646,255.006 284.507,258.233 281.280 C 259.617 279.897,262.070 279.625,263.587 280.688 M299.777 286.863 L 301.172 288.178 301.172 292.895 C 301.172 298.955,300.724 299.672,296.786 299.923 C 294.424 300.073,294.159 300.005,292.973 298.945 L 291.698 297.806 291.595 293.337 C 291.478 288.237,291.871 286.989,293.873 286.119 C 296.160 285.124,298.207 285.382,299.777 286.863 M250.753 290.415 C 252.453 291.294,252.462 291.383,252.527 308.008 C 252.593 324.927,252.585 325.007,250.693 326.192 C 245.881 329.209,240.127 321.852,244.531 318.312 L 246.094 317.057 246.088 309.407 C 246.081 300.848,246.125 301.028,243.876 300.424 C 240.792 299.595,239.373 296.548,240.793 293.803 C 242.268 290.950,248.011 288.997,250.753 290.415 M286.328 305.469 C 287.356 306.497,287.535 321.871,286.542 323.793 C 285.160 326.465,281.109 326.397,279.585 323.675 C 279.135 322.871,279.084 308.111,279.527 306.586 C 280.034 304.838,284.898 304.039,286.328 305.469 M264.836 309.277 C 266.043 310.379,266.185 310.846,266.078 313.373 C 265.844 318.882,257.031 318.622,257.031 313.106 C 257.031 309.002,261.912 306.608,264.836 309.277 M237.850 318.959 C 239.592 320.943,239.551 323.027,237.734 324.844 C 235.724 326.854,232.766 326.382,231.452 323.841 C 229.185 319.458,234.636 315.299,237.850 318.959 M272.789 318.380 C 275.866 320.800,274.543 326.172,270.870 326.172 C 268.733 326.172,266.406 323.760,266.406 321.546 C 266.406 318.385,270.325 316.442,272.789 318.380 " stroke="none" fill="#04324a" fill-rule="evenodd"></path><path id="path1" d="M199.895 35.000 C 199.796 35.100,197.362 35.442,194.486 35.761 C 191.611 36.079,188.906 36.458,188.477 36.603 C 187.139 37.054,186.576 37.137,184.877 37.138 C 183.972 37.138,183.131 37.300,183.009 37.497 C 182.887 37.695,182.549 37.765,182.258 37.653 C 181.266 37.273,168.387 39.996,167.945 40.680 C 167.824 40.866,167.297 40.987,166.773 40.947 C 165.820 40.875,160.134 42.482,159.766 42.928 C 159.568 43.167,159.121 43.301,157.508 43.603 C 157.019 43.694,154.910 44.394,152.821 45.159 C 150.732 45.923,148.716 46.642,148.340 46.757 C 147.964 46.872,147.656 47.132,147.656 47.334 C 147.656 47.537,147.501 47.606,147.310 47.489 C 146.999 47.296,143.401 48.852,135.840 52.447 C 134.390 53.136,133.203 53.845,133.203 54.022 C 133.203 54.198,133.026 54.234,132.810 54.100 C 132.593 53.966,132.325 54.094,132.214 54.385 C 132.102 54.676,131.623 54.943,131.150 54.978 C 130.676 55.014,130.065 55.348,129.793 55.721 C 129.520 56.094,129.297 56.287,129.297 56.149 C 129.297 55.900,123.808 58.882,123.438 59.333 C 123.330 59.463,122.979 59.629,122.656 59.700 C 121.740 59.902,114.063 64.920,114.063 65.317 C 114.063 65.512,113.918 65.582,113.741 65.473 C 113.565 65.363,112.198 66.188,110.705 67.305 C 109.212 68.422,107.088 69.951,105.987 70.703 C 104.885 71.455,104.081 72.229,104.200 72.424 C 104.320 72.618,104.234 72.664,104.010 72.525 C 103.538 72.233,98.323 76.671,92.977 81.915 C 90.940 83.912,89.147 85.547,88.992 85.547 C 88.837 85.547,88.557 85.822,88.368 86.159 C 88.180 86.496,86.614 88.209,84.889 89.968 C 80.782 94.153,74.170 101.927,72.203 104.883 C 71.345 106.172,69.856 108.281,68.895 109.570 C 66.099 113.319,61.358 120.826,61.570 121.170 C 61.677 121.343,61.595 121.484,61.388 121.484 C 60.309 121.484,50.006 141.640,50.596 142.595 C 50.723 142.801,50.673 142.969,50.485 142.969 C 50.015 142.969,47.140 150.201,46.711 152.465 C 46.662 152.720,46.340 153.581,45.994 154.378 C 45.383 155.788,44.121 160.144,43.979 161.335 C 43.940 161.661,43.810 162.100,43.690 162.312 C 43.176 163.215,41.451 170.385,41.013 173.438 C 40.752 175.264,40.201 178.508,39.790 180.648 C 39.378 182.788,39.137 184.788,39.254 185.092 C 39.371 185.397,39.310 185.843,39.120 186.085 C 38.929 186.326,38.653 188.281,38.507 190.430 C 38.159 195.540,37.908 198.021,37.619 199.219 C 37.350 200.331,37.386 202.353,37.909 215.371 C 38.115 220.495,38.390 224.860,38.521 225.071 C 38.651 225.282,38.814 226.627,38.882 228.059 C 38.951 229.492,39.210 231.543,39.457 232.617 C 39.704 233.691,40.245 236.761,40.660 239.438 C 41.075 242.115,41.575 244.466,41.771 244.661 C 41.966 244.857,42.049 245.218,41.955 245.464 C 41.861 245.710,42.226 247.389,42.767 249.196 C 43.308 251.003,43.750 252.802,43.750 253.194 C 43.750 253.586,43.882 253.907,44.043 253.907 C 44.204 253.907,44.370 254.391,44.411 254.981 C 44.476 255.918,47.205 264.803,47.920 266.406 C 48.064 266.729,48.229 267.390,48.287 267.876 C 48.344 268.362,48.765 269.285,49.222 269.927 C 49.679 270.569,49.961 271.094,49.849 271.094 C 48.504 271.094,60.262 294.146,65.688 302.148 C 71.208 310.289,73.458 313.479,73.736 313.558 C 74.030 313.642,77.376 307.111,77.355 306.494 C 77.349 306.306,77.773 305.164,78.297 303.955 C 78.821 302.747,80.124 299.561,81.194 296.875 C 83.855 290.193,85.295 286.790,86.278 284.864 C 87.513 282.443,87.421 282.295,83.800 280.886 C 79.352 279.156,79.446 279.415,81.447 274.403 C 82.388 272.046,85.213 264.932,87.724 258.594 C 102.516 221.262,113.474 213.210,167.383 200.056 C 170.820 199.217,174.647 198.233,175.886 197.868 L 178.139 197.206 177.900 184.248 L 177.660 171.289 176.385 169.336 C 174.324 166.179,172.266 161.064,172.266 159.102 C 172.266 158.337,171.830 157.975,169.824 157.074 C 161.024 153.121,158.744 151.210,155.609 145.160 C 151.841 137.890,156.312 126.336,164.387 122.475 C 165.605 121.892,166.865 121.280,167.188 121.115 C 167.980 120.709,168.258 119.213,168.316 115.039 C 168.551 98.375,176.746 80.118,186.914 73.609 C 187.559 73.197,188.808 72.316,189.689 71.652 C 198.728 64.847,215.218 61.521,226.070 64.315 C 233.207 66.152,236.068 67.211,241.287 69.950 C 249.159 74.082,255.020 80.422,258.592 88.672 C 259.289 90.283,260.034 91.819,260.248 92.085 C 261.887 94.132,263.732 107.923,263.719 118.034 L 263.708 126.107 265.028 127.113 C 274.918 134.657,271.558 152.633,259.113 158.758 C 256.326 160.129,256.308 160.149,255.672 162.393 C 255.321 163.633,254.621 165.527,254.117 166.602 C 251.827 171.483,249.901 175.275,249.258 176.172 C 248.873 176.709,248.051 177.920,247.430 178.863 C 245.478 181.831,235.841 190.234,234.389 190.234 C 233.566 190.234,233.093 191.440,233.535 192.410 C 233.781 192.950,234.098 194.893,234.239 196.728 C 234.534 200.564,234.076 200.163,240.039 201.818 C 267.070 209.320,286.341 220.259,295.508 233.306 L 297.070 235.530 321.541 235.538 C 344.932 235.547,346.124 235.581,348.553 236.332 C 354.808 238.264,358.897 242.811,360.196 249.279 C 360.679 251.684,359.755 258.005,357.236 269.531 C 356.508 272.861,355.276 278.750,354.498 282.617 C 353.721 286.484,352.641 291.406,352.099 293.555 C 351.557 295.703,351.072 297.820,351.021 298.259 C 350.969 298.697,350.815 299.238,350.678 299.460 C 350.201 300.232,350.816 301.629,351.415 301.132 C 351.711 300.887,351.953 300.443,351.953 300.147 C 351.953 299.852,352.116 299.609,352.314 299.609 C 352.759 299.609,353.569 298.236,358.554 289.030 C 360.716 285.037,362.539 281.415,362.606 280.981 C 362.672 280.547,363.026 279.734,363.394 279.173 C 363.761 278.613,364.747 276.433,365.584 274.331 C 366.421 272.228,367.728 268.970,368.487 267.090 C 369.247 265.210,369.772 263.672,369.652 263.672 C 369.533 263.672,369.630 263.438,369.868 263.151 C 370.106 262.865,370.746 261.063,371.291 259.147 C 371.836 257.231,372.647 254.664,373.093 253.443 C 373.540 252.221,373.789 251.034,373.648 250.806 C 373.507 250.578,373.596 250.391,373.847 250.391 C 374.097 250.391,374.209 250.148,374.096 249.852 C 373.982 249.556,374.057 249.146,374.262 248.941 C 374.467 248.736,374.697 247.967,374.772 247.233 C 374.848 246.499,375.040 245.583,375.198 245.198 C 375.357 244.813,375.393 244.404,375.279 244.289 C 375.164 244.175,375.420 243.290,375.847 242.324 C 376.275 241.358,376.519 240.295,376.391 239.961 C 376.263 239.627,376.338 239.137,376.558 238.872 C 376.778 238.607,377.312 236.124,377.744 233.355 C 378.175 230.586,378.694 227.598,378.897 226.714 C 379.099 225.831,379.178 224.631,379.072 224.046 C 378.957 223.413,379.033 223.079,379.260 223.219 C 379.469 223.349,379.641 223.143,379.642 222.762 C 379.643 222.382,379.830 220.049,380.059 217.578 C 380.793 209.648,380.246 188.803,379.142 182.629 C 378.833 180.904,378.461 178.613,378.315 177.539 C 378.169 176.465,377.942 175.413,377.812 175.202 C 377.682 174.990,377.524 173.955,377.461 172.900 C 377.398 171.845,377.172 170.772,376.958 170.514 C 376.744 170.256,376.676 169.939,376.806 169.809 C 376.936 169.679,376.686 168.377,376.251 166.915 C 375.816 165.454,375.240 163.247,374.972 162.012 C 374.704 160.776,374.354 159.766,374.193 159.766 C 374.033 159.766,373.993 159.414,374.106 158.984 C 374.218 158.555,374.149 158.203,373.952 158.203 C 373.755 158.203,373.582 157.808,373.567 157.324 C 373.514 155.567,368.958 142.941,368.270 142.643 C 368.104 142.572,367.969 142.259,367.969 141.948 C 367.969 140.509,361.540 126.953,360.857 126.953 C 360.615 126.953,360.526 126.844,360.659 126.711 C 360.792 126.578,360.338 125.411,359.650 124.118 C 358.962 122.826,358.225 121.441,358.013 121.040 C 357.801 120.640,357.493 120.313,357.329 120.313 C 357.165 120.313,357.031 120.138,357.031 119.925 C 357.031 119.366,352.274 111.973,351.675 111.602 C 351.398 111.430,351.172 111.131,351.172 110.937 C 351.172 110.380,347.636 105.469,347.235 105.469 C 347.037 105.469,346.875 105.178,346.875 104.822 C 346.875 104.200,345.573 102.218,344.092 100.586 C 343.702 100.156,342.308 98.522,340.994 96.955 C 339.680 95.388,338.269 93.895,337.857 93.639 C 337.446 93.382,337.109 92.963,337.109 92.708 C 337.109 92.453,336.645 91.879,336.078 91.433 C 335.511 90.987,333.949 89.374,332.607 87.850 C 331.266 86.325,330.063 85.051,329.935 85.019 C 329.807 84.987,327.711 83.027,325.277 80.664 C 322.843 78.301,319.807 75.528,318.531 74.502 C 317.255 73.477,315.751 72.227,315.190 71.726 C 312.363 69.202,299.900 60.845,298.926 60.820 C 298.657 60.813,298.524 60.720,298.631 60.614 C 299.142 60.103,287.694 53.740,287.017 54.159 C 286.787 54.301,286.698 54.256,286.820 54.059 C 287.232 53.391,273.409 46.996,272.615 47.487 C 272.423 47.605,272.266 47.539,272.266 47.339 C 272.266 46.981,268.829 45.836,268.262 46.006 C 268.101 46.054,267.969 45.931,267.969 45.731 C 267.969 45.154,260.166 42.516,258.301 42.462 C 258.032 42.454,257.813 42.321,257.813 42.167 C 257.813 42.012,257.329 41.798,256.738 41.692 C 256.147 41.585,253.667 41.039,251.226 40.479 C 248.786 39.919,246.605 39.574,246.381 39.712 C 246.144 39.859,246.090 39.776,246.252 39.513 C 246.435 39.217,246.154 39.042,245.433 39.003 C 243.824 38.916,243.599 38.874,243.122 38.575 C 242.884 38.426,240.248 38.022,237.263 37.677 C 234.278 37.332,231.309 36.894,230.664 36.702 C 230.020 36.511,227.749 36.244,225.618 36.111 C 223.488 35.977,221.378 35.777,220.931 35.667 C 220.483 35.557,215.811 35.397,210.547 35.311 C 205.283 35.225,200.774 35.079,200.526 34.987 C 200.279 34.895,199.995 34.901,199.895 35.000 M126.429 299.502 C 126.159 301.163,126.593 301.881,127.330 300.993 C 127.605 300.662,128.146 300.391,128.532 300.391 C 130.812 300.391,131.094 299.139,128.959 298.499 C 126.794 297.851,126.690 297.892,126.429 299.502 M350.100 302.441 C 349.547 303.139,348.769 304.688,348.971 304.688 C 349.065 304.688,349.505 304.072,349.948 303.320 C 350.754 301.954,350.829 301.520,350.100 302.441 M123.899 305.664 C 123.534 306.466,123.558 306.641,124.032 306.641 C 124.349 306.641,124.609 306.479,124.609 306.282 C 124.609 306.085,124.716 305.645,124.846 305.305 C 125.238 304.285,124.380 304.610,123.899 305.664 M120.313 316.602 C 120.313 316.924,120.093 317.144,119.824 317.090 C 119.550 317.035,119.282 317.462,119.212 318.066 C 119.063 319.365,123.330 319.725,124.828 318.541 C 125.534 317.982,125.453 317.946,123.633 318.006 C 120.356 318.113,120.269 318.084,120.543 316.992 C 120.678 316.455,120.681 316.016,120.550 316.016 C 120.419 316.016,120.313 316.279,120.313 316.602 M79.297 320.313 C 79.756 320.957,80.219 321.484,80.327 321.484 C 80.434 321.484,80.146 320.957,79.688 320.313 C 79.229 319.668,78.765 319.141,78.658 319.141 C 78.550 319.141,78.838 319.668,79.297 320.313 M329.914 327.258 L 329.164 328.320 330.207 327.373 C 331.303 326.378,331.438 326.164,330.957 326.184 C 330.796 326.191,330.327 326.674,329.914 327.258 M327.183 329.885 C 326.557 330.423,326.131 330.949,326.235 331.053 C 326.339 331.157,326.928 330.716,327.543 330.074 C 328.906 328.652,328.727 328.558,327.183 329.885 M94.499 335.298 C 95.019 335.939,96.484 336.907,96.484 336.611 C 96.484 336.536,95.913 336.057,95.215 335.546 C 94.429 334.971,94.156 334.876,94.499 335.298 M100.781 340.338 C 100.781 340.424,101.528 341.088,102.441 341.814 C 103.354 342.539,103.854 342.824,103.550 342.447 C 102.979 341.736,100.781 340.062,100.781 340.338 M112.109 348.793 C 112.646 349.233,113.262 349.593,113.477 349.595 C 113.895 349.598,113.188 349.057,111.914 348.398 C 111.395 348.130,111.461 348.263,112.109 348.793 M128.961 355.874 C 127.716 356.154,126.216 357.220,126.586 357.563 C 129.097 359.888,148.992 369.178,150.054 368.521 C 150.239 368.407,150.391 368.507,150.391 368.744 C 150.391 368.981,150.610 369.130,150.879 369.076 C 151.147 369.021,151.766 369.198,152.254 369.467 C 152.742 369.737,153.313 369.852,153.524 369.722 C 153.734 369.592,153.906 369.657,153.906 369.868 C 153.906 370.215,155.550 370.748,157.038 370.882 C 157.364 370.911,157.847 371.069,158.111 371.232 C 158.375 371.395,158.899 371.602,159.276 371.691 C 159.653 371.780,160.752 372.050,161.719 372.291 C 162.686 372.532,163.652 372.762,163.867 372.801 C 164.082 372.841,164.486 373.016,164.765 373.190 C 165.044 373.364,165.536 373.405,165.859 373.281 C 166.182 373.157,166.352 373.210,166.235 373.398 C 166.040 373.713,168.028 374.169,170.898 374.466 C 171.543 374.533,173.652 374.859,175.586 375.191 C 177.520 375.524,179.580 375.867,180.165 375.954 C 180.750 376.041,181.368 376.198,181.538 376.304 C 182.006 376.593,187.645 377.331,191.195 377.568 C 192.922 377.683,195.701 377.952,197.369 378.166 C 199.037 378.380,200.579 378.446,200.794 378.312 C 201.009 378.179,205.797 378.021,211.433 377.961 C 217.069 377.901,222.910 377.745,224.414 377.615 C 228.683 377.245,230.939 376.987,232.422 376.698 C 233.174 376.551,233.901 376.454,234.038 376.482 C 234.175 376.510,234.878 376.357,235.601 376.141 C 236.323 375.926,237.441 375.673,238.086 375.581 C 238.730 375.488,240.137 375.230,241.211 375.008 C 242.285 374.786,243.891 374.517,244.779 374.412 C 245.667 374.306,247.953 373.761,249.857 373.201 C 251.762 372.640,254.814 371.793,256.641 371.319 C 258.467 370.844,260.576 370.182,261.328 369.847 C 262.080 369.513,263.794 368.925,265.137 368.542 C 266.479 368.159,267.578 367.687,267.578 367.493 C 267.578 367.300,267.748 367.246,267.955 367.375 C 268.163 367.503,269.026 367.254,269.874 366.821 C 270.722 366.389,272.613 365.584,274.076 365.033 C 275.539 364.483,277.508 363.601,278.450 363.074 C 279.393 362.547,280.809 361.943,281.598 361.730 C 282.387 361.518,283.378 361.076,283.801 360.749 C 284.564 360.159,284.564 360.156,283.789 360.411 C 283.359 360.553,282.805 360.824,282.558 361.014 C 282.277 361.230,282.045 361.174,281.942 360.866 C 281.810 360.469,267.329 360.365,208.702 360.344 C 149.733 360.323,135.510 360.221,135.021 359.815 C 134.673 359.527,134.365 358.535,134.297 357.488 L 134.180 355.664 132.227 355.622 C 131.152 355.599,129.683 355.712,128.961 355.874 " stroke="none" fill="#9cddfb" fill-rule="evenodd"></path><path id="path2" d="M215.039 63.929 C 210.273 64.411,201.495 66.267,199.388 67.237 C 198.515 67.639,197.636 67.972,197.435 67.976 C 196.688 67.990,193.621 70.313,194.350 70.313 C 194.744 70.313,195.452 69.951,195.922 69.509 C 196.393 69.067,197.723 68.459,198.877 68.159 L 200.977 67.614 199.767 68.670 C 197.761 70.421,193.978 73.044,193.457 73.046 C 193.188 73.046,192.967 73.267,192.965 73.535 C 192.962 73.804,192.323 74.639,191.544 75.391 C 188.485 78.343,184.418 83.809,182.981 86.898 C 174.534 105.062,172.567 134.736,178.590 153.125 C 179.877 157.054,186.109 168.774,188.827 172.377 C 201.493 189.166,213.122 194.511,230.469 191.515 C 235.899 190.577,246.900 180.407,250.448 173.047 C 252.493 168.803,254.058 165.155,254.720 163.086 C 255.704 160.012,256.308 159.329,259.570 157.607 C 263.761 155.394,267.716 151.172,268.890 147.656 C 269.938 144.522,270.478 139.787,269.985 138.062 L 269.545 136.523 269.719 138.607 C 269.937 141.221,268.938 146.753,268.013 148.047 C 267.630 148.584,267.206 149.466,267.072 150.007 C 266.810 151.061,262.007 156.250,261.293 156.250 C 261.058 156.250,260.418 156.602,259.872 157.031 C 257.604 158.815,257.311 157.815,258.831 153.486 C 260.286 149.341,260.792 147.248,261.514 142.383 C 261.864 140.020,262.313 137.383,262.511 136.523 C 262.709 135.664,262.876 133.525,262.881 131.770 C 262.891 128.310,263.130 127.204,263.780 127.606 C 264.010 127.748,263.902 127.441,263.540 126.925 C 262.959 126.095,262.912 125.189,263.137 119.145 C 263.833 100.419,259.319 86.706,249.063 76.391 C 246.236 73.548,244.614 72.391,239.844 69.813 C 235.727 67.589,227.539 65.038,222.656 64.459 C 217.213 63.813,216.605 63.771,215.039 63.929 M210.156 131.197 C 214.094 133.957,213.347 140.916,208.947 142.458 C 203.100 144.508,198.379 139.394,200.776 133.607 C 202.019 130.606,207.356 129.235,210.156 131.197 M266.797 131.149 C 266.797 131.582,267.038 132.135,267.332 132.380 C 267.626 132.624,268.172 133.623,268.545 134.600 C 268.918 135.576,269.311 136.288,269.419 136.180 C 269.705 135.894,268.328 132.378,267.505 131.295 C 266.844 130.425,266.797 130.415,266.797 131.149 M247.351 133.443 C 248.746 134.164,250.356 136.594,250.653 138.425 C 251.755 145.215,241.747 148.603,238.630 142.496 C 237.268 139.827,238.439 133.705,240.334 133.588 C 240.387 133.585,241.133 133.323,241.992 133.006 C 243.691 132.381,245.597 132.536,247.351 133.443 M178.648 194.922 C 178.721 208.790,178.606 208.324,182.970 212.406 C 193.736 222.477,221.134 222.565,230.175 212.558 C 232.542 209.937,233.167 208.303,233.450 203.993 L 233.703 200.129 230.711 199.617 C 227.345 199.042,228.046 198.860,220.508 202.254 C 210.812 206.618,204.987 206.100,194.727 199.961 C 190.951 197.702,182.849 189.905,181.133 186.879 C 180.961 186.576,180.566 186.328,180.254 186.328 C 179.942 186.328,179.680 186.108,179.670 185.840 C 179.660 185.571,179.412 184.824,179.119 184.180 C 178.656 183.162,178.594 184.575,178.648 194.922 M87.407 284.737 C 86.907 286.008,86.898 286.235,87.351 286.061 C 87.651 285.946,88.003 285.431,88.132 284.918 C 88.410 283.810,89.465 283.703,91.541 284.570 C 92.313 284.893,93.169 285.148,93.444 285.137 C 94.057 285.114,89.161 283.203,88.488 283.203 C 88.225 283.203,87.738 283.893,87.407 284.737 M97.036 287.789 C 97.016 288.638,96.058 291.484,94.764 294.531 C 92.347 300.229,90.092 305.669,87.277 312.598 C 86.295 315.015,85.145 317.586,84.722 318.311 C 84.026 319.503,84.010 319.694,84.554 320.295 C 84.885 320.661,85.156 321.321,85.156 321.763 C 85.156 322.205,85.614 322.867,86.174 323.234 C 87.006 323.778,87.151 324.109,86.965 325.036 C 86.839 325.669,86.907 326.172,87.119 326.172 C 87.329 326.172,87.500 325.923,87.500 325.618 C 87.500 324.834,88.117 324.719,90.598 325.038 C 91.794 325.191,97.080 325.421,102.344 325.548 C 124.714 326.089,137.790 326.335,139.160 326.242 C 142.352 326.025,146.746 326.084,147.953 326.361 C 148.746 326.542,149.426 326.486,149.757 326.211 C 150.837 325.315,159.982 325.457,159.833 326.367 C 159.763 326.797,159.617 329.961,159.509 333.398 C 159.295 340.201,158.917 341.797,157.522 341.797 C 156.901 341.797,156.641 342.028,156.641 342.578 C 156.641 343.091,156.901 343.359,157.399 343.359 C 158.542 343.359,158.764 344.095,157.738 344.485 C 157.242 344.674,155.055 344.828,152.879 344.828 L 148.922 344.828 146.713 346.460 C 144.587 348.031,144.514 348.143,144.765 349.479 L 145.025 350.867 143.458 350.603 C 141.425 350.259,138.343 350.772,139.844 351.204 C 140.381 351.358,141.342 351.502,141.980 351.524 C 143.414 351.572,145.462 353.615,144.310 353.849 C 143.936 353.925,143.473 353.704,143.280 353.359 C 142.995 352.851,142.525 352.780,140.789 352.984 C 139.126 353.179,138.360 353.080,137.357 352.540 C 135.804 351.704,132.933 352.138,133.108 353.182 C 133.209 353.783,131.361 354.558,129.297 354.780 C 128.760 354.838,131.731 354.914,135.901 354.949 C 144.951 355.025,145.248 354.952,145.226 352.660 C 145.199 349.830,145.968 347.792,147.505 346.619 L 148.892 345.562 173.446 345.651 C 196.738 345.736,198.017 345.704,198.353 345.038 C 198.739 344.269,199.658 340.339,201.759 330.469 C 202.513 326.924,203.481 322.764,203.909 321.225 C 204.899 317.667,204.928 316.030,204.004 315.976 C 201.002 315.799,199.864 315.968,198.898 316.731 C 198.322 317.186,197.067 317.921,196.108 318.364 C 195.149 318.808,194.050 319.455,193.665 319.804 C 193.025 320.383,190.455 320.407,163.768 320.082 C 147.709 319.886,131.011 319.767,126.660 319.816 C 120.632 319.885,118.740 319.792,118.707 319.426 C 118.601 318.256,118.852 316.931,119.316 316.205 C 119.593 315.772,119.946 314.806,120.100 314.057 C 120.254 313.308,120.693 311.992,121.076 311.133 C 122.710 307.459,123.438 305.465,123.438 304.658 C 123.438 304.185,123.965 302.940,124.609 301.893 C 126.971 298.055,126.809 297.931,111.914 292.137 C 107.402 290.382,102.480 288.468,100.977 287.883 C 99.473 287.298,97.979 286.707,97.656 286.570 C 97.198 286.374,97.063 286.639,97.036 287.789 M293.869 287.661 C 292.800 288.581,292.772 288.711,292.699 292.975 C 292.610 298.165,293.177 299.219,296.058 299.219 C 299.680 299.219,300.256 298.221,300.072 292.263 L 299.947 288.238 298.704 287.480 C 297.001 286.441,295.210 286.509,293.869 287.661 M75.485 315.436 C 77.052 316.884,77.939 317.010,76.969 315.647 C 76.490 314.974,75.835 314.527,75.378 314.561 C 74.633 314.618,74.637 314.652,75.485 315.436 M78.236 317.892 C 77.905 318.102,78.349 318.818,79.701 320.250 C 80.768 321.380,81.641 322.440,81.641 322.604 C 81.641 322.769,82.212 323.429,82.910 324.071 C 83.608 324.714,84.509 325.710,84.912 326.284 C 85.316 326.859,85.799 327.234,85.987 327.118 C 86.174 327.002,86.328 327.093,86.328 327.321 C 86.328 327.548,86.621 327.734,86.979 327.734 C 87.337 327.734,87.521 327.844,87.387 327.977 C 86.992 328.372,90.197 331.319,90.690 331.014 C 90.971 330.841,91.029 330.912,90.847 331.207 C 90.498 331.771,91.341 332.899,91.867 332.574 C 92.072 332.447,92.337 332.713,92.455 333.164 C 92.573 333.615,92.887 333.984,93.153 333.984 C 93.418 333.984,94.101 334.415,94.670 334.942 C 95.238 335.469,95.703 335.794,95.703 335.664 C 95.703 335.534,96.074 335.850,96.527 336.366 C 96.980 336.882,97.520 337.256,97.728 337.197 C 97.935 337.138,97.998 337.264,97.867 337.476 C 97.736 337.688,98.382 338.346,99.302 338.939 C 100.223 339.532,101.393 340.414,101.903 340.901 C 102.767 341.725,103.801 341.794,103.306 340.993 C 103.184 340.796,103.357 340.739,103.691 340.867 C 104.400 341.139,104.456 341.481,103.886 342.051 C 103.599 342.338,103.775 342.658,104.472 343.115 C 105.020 343.474,105.469 343.637,105.469 343.477 C 105.469 343.317,105.742 343.576,106.077 344.054 C 106.411 344.531,107.037 344.922,107.467 344.922 C 107.897 344.922,108.153 345.078,108.035 345.268 C 107.797 345.654,108.501 346.350,109.331 346.550 C 109.628 346.621,110.295 347.059,110.813 347.523 C 111.332 347.987,112.363 348.654,113.104 349.006 C 113.846 349.358,114.453 349.808,114.453 350.006 C 114.453 350.204,114.717 350.265,115.039 350.141 C 115.389 350.007,115.625 350.138,115.625 350.466 C 115.625 351.307,123.934 356.641,125.245 356.641 C 126.913 356.641,125.881 355.415,123.142 354.144 C 122.442 353.819,121.418 353.062,120.864 352.460 C 120.311 351.859,119.979 351.600,120.127 351.884 C 120.346 352.309,120.252 352.312,119.598 351.904 C 119.160 351.631,118.834 351.222,118.874 350.996 C 118.913 350.771,118.635 350.638,118.256 350.702 C 117.876 350.766,117.612 350.654,117.670 350.453 C 117.835 349.872,114.743 347.591,114.040 347.775 C 113.690 347.867,113.226 347.658,113.009 347.311 C 112.792 346.964,111.754 346.254,110.702 345.733 C 108.183 344.487,105.345 342.318,104.990 341.368 C 104.832 340.944,104.189 340.506,103.534 340.375 C 102.410 340.150,101.238 339.197,101.485 338.709 C 101.551 338.581,101.293 338.412,100.912 338.334 C 99.350 338.012,92.201 332.112,91.668 330.706 C 91.514 330.299,91.293 330.061,91.177 330.178 C 90.858 330.496,88.752 328.374,88.983 327.967 C 89.093 327.773,89.004 327.724,88.786 327.859 C 88.567 327.994,87.705 327.502,86.870 326.764 C 85.925 325.929,85.573 325.408,85.938 325.382 C 86.287 325.358,86.169 325.199,85.645 324.988 C 84.763 324.634,84.424 323.828,85.156 323.828 C 85.371 323.828,85.547 323.652,85.547 323.438 C 85.547 323.223,85.283 323.047,84.961 323.047 C 84.639 323.047,84.375 323.246,84.375 323.490 C 84.375 323.734,84.023 323.487,83.594 322.940 C 83.164 322.394,82.813 321.617,82.813 321.213 C 82.813 320.753,82.514 320.456,82.011 320.418 C 81.117 320.351,78.441 318.174,78.804 317.810 C 79.130 317.485,78.803 317.532,78.236 317.892 M87.500 321.489 C 87.500 322.318,86.525 321.631,86.390 320.707 C 86.269 319.873,86.310 319.848,86.879 320.417 C 87.220 320.758,87.500 321.241,87.500 321.489 M145.402 344.214 C 145.643 344.937,146.363 345.019,146.619 344.352 C 146.781 343.930,146.611 343.750,146.049 343.750 C 145.604 343.750,145.316 343.956,145.402 344.214 M140.452 354.260 C 140.332 354.455,139.882 354.522,139.453 354.410 C 138.378 354.129,138.475 353.906,139.671 353.906 C 140.221 353.906,140.573 354.066,140.452 354.260 " stroke="none" fill="#facb8b" fill-rule="evenodd"></path><path id="path3" d="M198.690 68.169 C 197.647 68.455,196.406 69.055,195.931 69.501 C 195.456 69.947,194.768 70.313,194.403 70.313 C 193.627 70.313,189.453 72.595,189.453 73.018 C 189.453 73.177,188.562 73.883,187.473 74.589 C 185.566 75.825,182.000 79.288,181.681 80.215 C 181.596 80.462,180.858 81.288,180.042 82.050 C 179.225 82.813,178.367 83.867,178.137 84.394 C 177.906 84.921,177.200 86.055,176.567 86.914 C 175.934 87.773,175.411 88.688,175.404 88.947 C 175.396 89.206,174.873 90.525,174.241 91.877 C 171.028 98.748,169.145 107.402,169.142 115.307 C 169.141 119.877,168.772 121.875,167.929 121.875 C 165.699 121.875,158.919 127.081,157.244 130.078 C 151.401 140.536,157.367 152.236,170.770 156.604 C 171.558 156.861,172.369 157.282,172.573 157.540 C 172.929 157.991,173.045 158.402,173.829 161.992 C 174.264 163.980,176.333 168.212,177.484 169.467 C 178.262 170.315,178.320 170.793,178.320 176.303 C 178.320 182.409,179.112 186.328,180.346 186.328 C 180.607 186.328,180.961 186.576,181.133 186.879 C 182.843 189.895,190.944 197.696,194.727 199.970 C 205.471 206.428,211.129 206.686,222.831 201.253 L 227.499 199.086 230.163 199.543 C 231.628 199.794,233.025 200.000,233.267 200.000 C 233.816 200.000,233.459 195.029,232.753 192.838 L 232.270 191.340 230.491 191.570 C 211.784 193.987,201.585 189.288,188.827 172.377 C 186.109 168.774,179.877 157.054,178.590 153.125 C 172.567 134.736,174.534 105.062,182.981 86.898 C 184.418 83.809,188.485 78.343,191.544 75.391 C 192.323 74.639,192.962 73.804,192.965 73.535 C 192.967 73.267,193.188 73.046,193.457 73.046 C 193.726 73.045,194.983 72.298,196.251 71.385 C 198.574 69.714,201.143 67.581,200.781 67.625 C 200.674 67.637,199.733 67.882,198.690 68.169 M263.128 127.962 C 262.997 128.301,262.886 130.015,262.881 131.770 C 262.876 133.525,262.709 135.664,262.511 136.523 C 262.313 137.383,261.864 140.020,261.514 142.383 C 260.792 147.248,260.286 149.341,258.831 153.486 C 257.311 157.815,257.604 158.815,259.872 157.031 C 260.418 156.602,261.058 156.250,261.293 156.250 C 262.007 156.250,266.810 151.061,267.072 150.007 C 267.206 149.466,267.630 148.584,268.013 148.047 C 270.409 144.693,269.858 133.877,267.208 132.239 C 266.982 132.100,266.797 131.577,266.797 131.077 C 266.797 129.598,263.556 126.846,263.128 127.962 M88.121 284.961 C 87.986 285.498,87.703 285.938,87.491 285.938 C 87.111 285.938,83.203 293.551,83.203 294.292 C 83.203 294.503,82.862 295.390,82.446 296.263 C 82.029 297.137,81.165 299.374,80.527 301.234 C 79.888 303.094,78.720 305.907,77.931 307.484 C 75.090 313.167,75.090 313.156,77.601 316.247 C 78.315 317.126,78.784 317.961,78.642 318.102 C 78.501 318.244,78.599 318.359,78.860 318.359 C 79.121 318.359,79.751 318.809,80.259 319.358 C 80.768 319.907,81.551 320.384,81.999 320.417 C 82.554 320.459,82.813 320.747,82.813 321.324 C 82.813 322.359,83.850 323.285,84.826 323.120 C 85.222 323.053,85.547 323.185,85.547 323.413 C 85.547 323.641,85.371 323.828,85.156 323.828 C 84.442 323.828,84.753 324.679,85.542 324.886 C 85.970 324.997,86.209 325.267,86.074 325.486 C 85.939 325.704,86.073 325.802,86.371 325.704 C 87.354 325.380,87.228 323.924,86.157 323.222 C 85.606 322.861,85.156 322.205,85.156 321.763 C 85.156 321.321,84.885 320.661,84.554 320.295 C 84.010 319.694,84.026 319.503,84.722 318.311 C 85.145 317.586,86.295 315.015,87.277 312.598 C 89.975 305.957,92.287 300.371,94.755 294.531 C 97.260 288.604,97.608 286.600,96.168 286.395 C 95.671 286.325,95.169 286.017,95.052 285.712 C 94.934 285.406,94.412 285.156,93.891 285.156 C 93.370 285.156,92.313 284.893,91.541 284.570 C 89.436 283.690,88.410 283.808,88.121 284.961 M86.390 320.707 C 86.464 321.208,86.743 321.691,87.012 321.779 C 87.701 322.006,87.618 321.156,86.879 320.417 C 86.310 319.848,86.269 319.873,86.390 320.707 M155.390 320.213 C 157.172 320.285,159.985 320.285,161.640 320.212 C 163.294 320.139,161.836 320.080,158.398 320.080 C 154.961 320.080,153.607 320.140,155.390 320.213 M87.961 324.911 C 87.707 324.996,87.500 325.314,87.500 325.618 C 87.500 325.923,87.297 326.172,87.049 326.172 C 86.793 326.172,86.904 326.510,87.305 326.953 C 87.694 327.383,88.236 327.734,88.511 327.734 C 88.785 327.734,89.121 328.086,89.258 328.516 C 89.394 328.945,89.663 329.297,89.856 329.297 C 90.049 329.297,91.223 330.317,92.467 331.563 C 95.404 334.509,99.983 338.156,100.977 338.341 C 101.406 338.422,101.761 338.661,101.764 338.873 C 101.776 339.645,102.353 340.139,103.517 340.371 C 104.187 340.505,104.831 340.941,104.990 341.368 C 105.345 342.318,108.183 344.487,110.702 345.733 C 111.754 346.254,112.792 346.964,113.009 347.311 C 113.226 347.658,113.690 347.867,114.040 347.775 C 114.743 347.591,117.835 349.872,117.670 350.453 C 117.612 350.654,117.876 350.766,118.256 350.702 C 118.635 350.638,118.913 350.771,118.874 350.996 C 118.834 351.222,119.160 351.631,119.598 351.904 C 120.252 352.312,120.344 352.309,120.112 351.884 C 119.957 351.600,120.375 351.926,121.041 352.608 C 121.707 353.291,122.651 353.971,123.138 354.119 C 123.625 354.268,124.328 354.657,124.701 354.984 C 125.794 355.943,133.301 354.335,133.108 353.182 C 132.933 352.138,135.804 351.704,137.357 352.540 C 138.360 353.080,139.126 353.179,140.789 352.984 C 142.525 352.780,142.995 352.851,143.280 353.359 C 143.473 353.704,143.936 353.925,144.310 353.849 C 145.462 353.615,143.414 351.572,141.980 351.524 C 141.342 351.502,140.381 351.356,139.844 351.198 C 138.368 350.765,141.633 350.251,143.562 350.613 L 145.029 350.888 144.767 349.490 C 144.513 348.141,144.582 348.034,146.713 346.460 L 148.922 344.828 152.879 344.828 C 155.055 344.828,157.242 344.674,157.738 344.485 C 158.764 344.095,158.542 343.359,157.399 343.359 C 156.901 343.359,156.641 343.091,156.641 342.578 C 156.641 342.028,156.901 341.797,157.522 341.797 C 158.917 341.797,159.295 340.201,159.509 333.398 C 159.617 329.961,159.763 326.797,159.833 326.367 C 159.982 325.457,150.837 325.315,149.757 326.211 C 149.426 326.486,148.746 326.542,147.953 326.361 C 146.746 326.084,142.352 326.025,139.160 326.242 C 137.790 326.335,124.714 326.089,102.344 325.548 C 97.080 325.421,91.794 325.191,90.598 325.038 C 89.401 324.884,88.214 324.827,87.961 324.911 M146.619 344.352 C 146.363 345.019,145.643 344.937,145.402 344.214 C 145.316 343.956,145.604 343.750,146.049 343.750 C 146.611 343.750,146.781 343.930,146.619 344.352 M138.672 354.056 C 138.672 354.403,140.252 354.584,140.452 354.260 C 140.573 354.066,140.221 353.906,139.671 353.906 C 139.122 353.906,138.672 353.974,138.672 354.056 " stroke="none" fill="#f6a763" fill-rule="evenodd"></path><path id="path4" d="M202.616 233.777 C 199.713 234.385,191.514 237.921,189.886 239.268 C 189.325 239.731,188.567 240.272,188.200 240.471 C 180.279 244.767,172.756 259.161,171.687 272.070 C 170.058 291.725,184.992 312.777,201.781 314.495 C 206.128 314.939,205.968 315.025,206.610 311.914 C 206.876 310.625,207.866 306.318,208.811 302.344 C 210.771 294.094,212.585 286.167,213.680 281.055 C 214.094 279.121,214.885 275.605,215.436 273.242 C 216.329 269.421,217.629 263.443,219.920 252.625 C 221.023 247.422,222.927 243.910,225.998 241.418 C 229.363 238.688,229.419 238.846,224.178 236.285 C 218.698 233.607,208.878 232.465,202.616 233.777 M268.438 270.691 C 265.779 272.617,265.918 276.465,268.700 277.904 C 273.286 280.275,276.851 273.026,272.439 270.299 C 270.788 269.279,270.325 269.324,268.438 270.691 M281.408 270.088 C 278.708 271.264,278.322 275.235,280.705 277.327 C 282.990 279.334,285.742 278.544,286.713 275.604 C 287.995 271.719,284.945 268.548,281.408 270.088 M248.884 270.911 C 246.218 273.155,246.613 276.336,249.750 277.879 C 252.530 279.247,254.969 277.600,255.365 274.087 C 255.768 270.514,251.716 268.529,248.884 270.911 M258.916 280.747 C 257.063 281.897,256.521 284.207,257.609 286.313 C 259.080 289.156,262.272 289.963,264.178 287.974 C 267.868 284.123,263.390 277.972,258.916 280.747 M245.923 290.443 C 242.742 291.316,240.792 293.199,240.369 295.806 C 240.102 297.452,242.472 300.391,244.067 300.391 C 245.939 300.391,246.094 301.075,246.094 309.338 L 246.094 317.057 244.531 318.312 C 242.774 319.725,242.428 321.650,243.544 323.808 C 244.855 326.342,249.724 327.152,251.606 325.149 L 252.496 324.202 252.465 308.253 C 252.431 290.767,252.450 290.908,250.093 290.254 C 248.355 289.771,248.374 289.770,245.923 290.443 M281.445 305.229 C 279.419 306.112,279.377 306.296,279.247 314.844 C 279.114 323.629,279.217 324.144,281.325 325.234 C 282.346 325.762,282.802 325.791,284.078 325.409 C 286.463 324.694,286.778 323.512,287.018 314.393 L 287.220 306.716 286.206 305.702 C 285.064 304.560,283.367 304.391,281.445 305.229 M260.156 308.642 C 255.876 310.349,256.649 317.188,261.122 317.188 C 264.038 317.188,266.016 315.130,266.016 312.096 C 266.016 309.193,263.094 307.470,260.156 308.642 M232.900 318.361 C 228.765 320.883,231.825 327.342,236.306 325.549 C 239.260 324.367,239.879 320.616,237.457 318.578 C 236.030 317.377,234.624 317.310,232.900 318.361 M268.824 318.093 C 266.479 319.430,265.903 321.735,267.374 323.900 C 269.325 326.771,272.522 326.670,273.976 323.692 C 275.677 320.210,272.042 316.259,268.824 318.093 " stroke="none" fill="#07b3f9" fill-rule="evenodd"></path><path id="path5" d="M203.556 131.599 C 199.703 133.652,199.928 139.640,203.935 141.716 C 207.812 143.725,212.113 140.967,212.107 136.477 C 212.101 132.006,207.605 129.442,203.556 131.599 M209.525 132.066 C 212.211 134.178,212.547 137.940,210.254 140.222 C 205.762 144.694,199.011 139.680,201.856 133.984 C 203.137 131.421,207.362 130.364,209.525 132.066 M241.509 133.971 C 237.792 135.659,237.248 140.475,240.416 143.643 C 242.900 146.128,245.418 146.001,248.332 143.243 C 253.266 138.574,247.783 131.124,241.509 133.971 M246.204 134.129 C 250.056 135.771,250.932 140.083,248.008 143.008 C 244.896 146.119,240.792 145.284,239.242 141.224 C 237.453 136.539,241.701 132.211,246.204 134.129 M177.475 200.781 C 177.475 202.393,177.544 203.052,177.628 202.246 C 177.713 201.440,177.713 200.122,177.628 199.316 C 177.544 198.511,177.475 199.170,177.475 200.781 M233.976 204.199 C 233.952 213.641,225.865 219.218,210.552 220.352 C 205.343 220.738,202.935 221.103,205.697 221.088 C 223.430 220.991,234.375 214.639,234.375 204.443 C 234.375 201.418,234.427 201.216,235.254 201.057 C 236.007 200.912,235.980 200.880,235.059 200.834 L 233.984 200.781 233.976 204.199 M177.784 205.078 C 177.593 211.287,190.161 220.542,198.430 220.281 C 198.971 220.264,198.271 220.005,196.875 219.706 C 186.755 217.536,179.197 211.808,178.129 205.500 C 177.849 203.844,177.823 203.813,177.784 205.078 M200.684 220.595 C 201.382 220.682,202.524 220.682,203.223 220.595 C 203.921 220.508,203.350 220.438,201.953 220.438 C 200.557 220.438,199.985 220.508,200.684 220.595 M107.603 225.488 L 105.664 227.539 107.715 225.601 C 108.843 224.534,109.766 223.612,109.766 223.550 C 109.766 223.258,109.404 223.583,107.603 225.488 M288.867 226.563 C 289.925 227.637,290.879 228.516,290.986 228.516 C 291.094 228.516,290.316 227.637,289.258 226.563 C 288.200 225.488,287.246 224.609,287.139 224.609 C 287.031 224.609,287.809 225.488,288.867 226.563 M103.885 229.199 L 102.539 230.664 104.004 229.318 C 105.367 228.065,105.648 227.734,105.350 227.734 C 105.285 227.734,104.626 228.394,103.885 229.199 M296.435 235.645 C 296.937 236.285,298.563 236.322,322.020 236.233 L 347.070 236.139 322.107 236.035 C 302.941 235.956,296.999 235.819,296.521 235.446 C 295.970 235.017,295.960 235.040,296.435 235.645 M355.273 241.016 C 356.113 241.875,356.887 242.578,356.994 242.578 C 357.102 242.578,356.503 241.875,355.664 241.016 C 354.825 240.156,354.050 239.453,353.943 239.453 C 353.836 239.453,354.434 240.156,355.273 241.016 M87.891 281.909 C 88.213 282.023,89.883 282.701,91.602 283.416 C 97.862 286.021,109.872 290.649,110.011 290.510 C 110.212 290.309,88.415 281.634,87.805 281.671 C 87.484 281.691,87.515 281.777,87.891 281.909 M296.484 285.835 C 297.800 285.948,298.562 286.294,299.512 287.210 L 300.781 288.435 300.781 293.063 C 300.781 297.457,300.733 297.740,299.822 298.651 C 299.295 299.178,299.019 299.609,299.208 299.609 C 300.569 299.609,301.172 297.537,301.172 292.865 L 301.172 288.178 299.777 286.863 C 298.566 285.721,298.140 285.556,296.554 285.615 L 294.727 285.683 296.484 285.835 M293.262 286.359 C 289.654 288.461,291.331 300.106,295.221 299.960 C 296.212 299.923,296.194 299.898,294.972 299.609 C 292.435 299.010,292.103 298.285,291.995 293.113 L 291.898 288.493 293.175 287.215 C 294.472 285.919,294.500 285.638,293.262 286.359 M112.109 291.481 C 113.076 291.921,116.240 293.200,119.141 294.323 C 126.484 297.166,126.080 297.024,125.391 296.523 C 125.068 296.289,122.959 295.381,120.703 294.506 C 118.447 293.631,115.339 292.399,113.797 291.770 C 110.610 290.469,109.453 290.271,112.109 291.481 M134.511 296.094 C 134.511 297.920,134.579 298.667,134.661 297.754 C 134.743 296.841,134.743 295.347,134.661 294.434 C 134.579 293.521,134.511 294.268,134.511 296.094 M131.250 295.703 C 131.250 295.918,131.265 296.206,131.283 296.343 C 131.302 296.480,131.082 296.741,130.795 296.923 C 130.395 297.177,130.433 297.255,130.957 297.260 C 131.427 297.264,131.641 296.961,131.641 296.289 C 131.641 295.752,131.553 295.313,131.445 295.313 C 131.338 295.313,131.250 295.488,131.250 295.703 M134.368 315.118 C 134.264 316.235,134.323 317.006,134.498 316.831 C 134.673 316.656,134.757 315.741,134.686 314.799 L 134.556 313.086 134.368 315.118 M339.611 314.904 L 338.867 315.746 339.941 315.055 C 341.049 314.342,341.259 314.063,340.686 314.063 C 340.504 314.063,340.021 314.441,339.611 314.904 M199.998 314.746 C 199.995 315.093,198.626 315.909,194.180 318.218 C 192.375 319.155,191.194 319.922,191.555 319.922 C 192.143 319.922,194.710 318.569,198.926 316.037 C 200.180 315.284,200.846 314.453,200.195 314.453 C 200.088 314.453,199.999 314.585,199.998 314.746 M205.904 315.430 C 205.879 315.859,205.416 318.038,204.874 320.272 C 204.333 322.506,203.964 324.407,204.054 324.496 C 204.332 324.774,206.307 316.000,206.123 315.305 C 205.986 314.785,205.940 314.811,205.904 315.430 M336.975 317.901 C 336.438 318.495,336.424 318.620,336.895 318.620 C 337.209 318.620,337.384 318.488,337.285 318.328 C 337.186 318.167,337.325 317.957,337.595 317.860 C 337.865 317.764,337.982 317.572,337.856 317.434 C 337.729 317.296,337.333 317.506,336.975 317.901 M135.759 319.192 C 136.394 319.328,148.867 319.423,163.477 319.403 C 178.086 319.383,188.281 319.317,186.133 319.257 C 177.542 319.017,134.681 318.962,135.759 319.192 M333.833 321.436 C 333.045 322.307,333.563 322.860,334.505 322.155 C 334.893 321.865,335.019 321.486,334.827 321.182 C 334.586 320.800,334.355 320.859,333.833 321.436 M202.956 327.801 C 201.556 334.198,200.342 339.824,199.701 342.885 L 199.023 346.121 174.359 346.075 C 144.536 346.020,146.171 345.658,145.780 352.405 L 145.599 355.526 140.182 355.400 C 137.202 355.330,134.765 355.410,134.765 355.577 C 134.765 355.744,137.271 355.832,140.332 355.772 L 145.898 355.664 146.172 352.647 C 146.774 346.010,144.625 346.486,174.455 346.379 L 199.352 346.289 199.806 344.141 C 200.420 341.233,202.627 331.285,203.385 328.009 C 203.723 326.548,203.906 325.260,203.791 325.145 C 203.677 325.031,203.301 326.226,202.956 327.801 M247.754 326.832 C 248.130 326.930,248.745 326.930,249.121 326.832 C 249.497 326.734,249.189 326.653,248.438 326.653 C 247.686 326.653,247.378 326.734,247.754 326.832 M322.468 332.805 C 321.633 333.661,321.094 334.496,321.270 334.661 C 321.447 334.826,321.675 334.724,321.778 334.435 C 321.881 334.145,322.491 333.310,323.133 332.579 C 324.724 330.767,324.327 330.902,322.468 332.805 M319.090 335.922 C 318.620 336.558,318.107 337.000,317.951 336.903 C 317.795 336.806,317.427 337.033,317.134 337.407 C 316.664 338.007,316.674 338.029,317.223 337.601 C 317.565 337.334,317.936 337.207,318.048 337.319 C 318.159 337.430,318.723 336.901,319.301 336.143 C 319.879 335.386,320.261 334.766,320.149 334.766 C 320.037 334.766,319.560 335.286,319.090 335.922 M305.217 346.575 C 304.813 347.230,305.483 347.419,306.083 346.819 C 306.616 346.286,306.613 346.224,306.056 346.224 C 305.714 346.224,305.337 346.382,305.217 346.575 M300.373 349.623 C 299.134 350.445,298.858 350.774,299.414 350.766 C 300.237 350.752,302.650 349.004,302.311 348.666 C 302.203 348.557,301.331 348.988,300.373 349.623 M295.602 352.490 C 293.604 353.718,293.438 353.941,294.814 353.546 C 296.576 353.041,297.706 352.349,297.449 351.934 C 297.165 351.474,297.339 351.422,295.602 352.490 M290.723 355.337 C 290.183 355.555,290.051 356.250,290.550 356.250 C 290.724 356.250,291.208 355.992,291.625 355.676 C 292.396 355.093,291.843 354.885,290.723 355.337 M134.923 358.594 L 134.961 359.570 140.333 359.587 L 145.704 359.605 140.455 359.479 C 135.386 359.358,135.201 359.324,135.046 358.485 C 134.910 357.750,134.891 357.766,134.923 358.594 M285.055 358.528 C 284.463 358.919,284.097 359.357,284.242 359.502 C 284.772 360.032,285.432 359.742,285.866 358.789 C 286.396 357.626,286.415 357.632,285.055 358.528 M276.066 359.657 C 276.759 359.743,277.989 359.745,278.800 359.660 C 279.610 359.576,279.043 359.505,277.539 359.503 C 276.035 359.501,275.372 359.571,276.066 359.657 M159.277 360.058 C 163.843 360.121,171.313 360.121,175.879 360.058 C 180.444 359.996,176.709 359.945,167.578 359.945 C 158.447 359.945,154.712 359.996,159.277 360.058 M241.113 360.058 C 246.001 360.120,253.999 360.120,258.887 360.058 C 263.774 359.996,259.775 359.946,250.000 359.946 C 240.225 359.946,236.226 359.996,241.113 360.058 " stroke="none" fill="#525344" fill-rule="evenodd"></path><path id="path6" d="M210.591 63.691 C 203.998 64.319,194.751 67.841,189.689 71.652 C 188.808 72.316,187.559 73.197,186.914 73.609 C 176.746 80.118,168.551 98.375,168.316 115.039 C 168.258 119.213,167.980 120.709,167.188 121.115 C 166.865 121.280,165.605 121.892,164.387 122.475 C 152.749 128.039,150.940 143.913,160.998 152.207 C 163.002 153.859,164.469 154.668,169.824 157.074 C 171.830 157.975,172.266 158.337,172.266 159.102 C 172.266 161.064,174.324 166.179,176.385 169.336 L 177.660 171.289 177.900 184.277 C 178.092 194.640,178.040 197.267,177.644 197.272 C 177.264 197.276,177.258 197.347,177.621 197.578 C 177.920 197.768,178.141 199.239,178.223 201.576 C 178.295 203.610,178.418 200.703,178.496 195.117 C 178.575 189.531,178.593 184.697,178.537 184.375 C 178.482 184.053,178.410 180.771,178.378 177.082 C 178.324 170.815,178.266 170.316,177.484 169.465 C 177.024 168.964,176.094 167.447,175.418 166.094 C 174.314 163.886,173.895 162.535,173.166 158.839 C 172.981 157.906,172.510 157.522,170.359 156.555 C 164.311 153.838,162.973 153.063,160.892 151.075 C 151.471 142.072,153.678 128.620,165.525 122.843 C 169.016 121.141,169.140 120.876,169.142 115.111 C 169.144 108.381,170.856 99.584,173.260 93.945 C 175.590 88.480,176.652 86.376,177.441 85.657 C 177.817 85.315,178.125 84.814,178.125 84.543 C 178.125 84.272,178.916 83.201,179.883 82.163 C 180.850 81.124,181.641 80.132,181.641 79.957 C 181.641 79.571,185.911 75.427,187.152 74.609 C 187.641 74.287,188.453 73.629,188.958 73.146 C 189.463 72.664,190.424 71.961,191.095 71.584 C 191.765 71.207,193.120 70.424,194.106 69.845 C 195.092 69.266,196.514 68.516,197.266 68.178 C 198.018 67.841,199.160 67.322,199.805 67.026 C 201.585 66.208,209.245 64.650,214.264 64.084 C 220.666 63.363,233.033 66.133,239.844 69.813 C 244.614 72.391,246.236 73.548,249.063 76.391 C 259.351 86.738,263.834 100.407,263.131 119.292 L 262.871 126.278 264.614 127.885 C 269.967 132.820,271.471 139.791,268.882 147.656 C 267.729 151.157,263.768 155.390,259.570 157.607 C 256.308 159.329,255.704 160.012,254.720 163.086 C 254.058 165.155,252.493 168.803,250.448 173.047 C 247.729 178.688,242.177 184.645,235.645 188.929 C 233.872 190.091,232.422 191.198,232.422 191.388 C 232.422 191.578,232.708 192.847,233.059 194.207 C 235.333 203.039,232.663 211.949,226.693 215.447 C 225.728 216.012,225.028 216.564,225.137 216.674 C 225.443 216.979,228.814 214.541,230.288 212.947 C 232.828 210.202,233.689 208.080,233.900 204.040 C 234.005 202.033,234.207 200.391,234.349 200.391 C 234.728 200.391,234.048 193.740,233.541 192.480 C 233.115 191.422,233.563 190.234,234.389 190.234 C 235.841 190.234,245.478 181.831,247.430 178.863 C 248.051 177.920,248.873 176.709,249.258 176.172 C 249.901 175.275,251.827 171.483,254.117 166.602 C 254.621 165.527,255.321 163.633,255.672 162.393 C 256.308 160.149,256.326 160.129,259.113 158.758 C 271.558 152.633,274.918 134.657,265.028 127.113 L 263.708 126.107 263.719 118.034 C 263.732 107.923,261.887 94.132,260.248 92.085 C 260.034 91.819,259.289 90.283,258.592 88.672 C 255.020 80.422,249.159 74.082,241.287 69.950 C 236.038 67.196,233.157 66.132,225.947 64.286 C 223.095 63.556,215.213 63.250,210.591 63.691 M204.492 130.581 C 201.707 131.707,200.063 133.702,200.506 135.418 C 200.633 135.908,200.705 135.805,200.736 135.089 C 200.799 133.641,202.418 131.852,204.375 131.069 C 211.238 128.323,215.769 138.011,209.375 141.759 C 208.391 142.336,208.216 142.563,208.752 142.569 C 209.858 142.582,212.420 139.690,212.721 138.089 C 213.672 133.018,209.003 128.758,204.492 130.581 M241.992 133.006 C 241.133 133.323,240.387 133.585,240.334 133.588 C 240.282 133.591,239.711 134.323,239.065 135.215 C 236.536 138.706,238.247 144.713,241.992 145.497 L 243.164 145.742 241.973 145.188 C 237.401 143.064,236.959 135.899,241.270 133.802 C 243.246 132.841,246.113 133.025,247.884 134.227 C 248.714 134.790,249.147 134.954,248.846 134.592 C 247.424 132.879,244.300 132.156,241.992 133.006 M200.219 137.500 C 200.946 141.225,202.994 143.023,206.395 142.920 L 208.008 142.871 206.020 142.580 C 202.955 142.130,200.794 140.246,200.775 138.008 C 200.772 137.621,200.586 137.041,200.361 136.719 C 200.061 136.288,200.023 136.494,200.219 137.500 M250.489 139.258 C 250.493 140.117,250.573 140.423,250.667 139.937 C 250.760 139.451,250.757 138.748,250.659 138.374 C 250.561 138.001,250.485 138.398,250.489 139.258 M250.000 141.311 C 250.000 142.130,247.871 144.258,246.305 145.004 C 245.075 145.590,244.972 145.704,245.840 145.517 C 247.894 145.076,251.034 141.919,250.224 141.110 C 250.101 140.986,250.000 141.077,250.000 141.311 M178.924 207.672 C 178.794 211.014,187.582 217.074,195.635 219.196 C 203.512 221.273,220.173 220.086,224.219 217.161 C 224.740 216.784,224.740 216.760,224.219 216.939 C 206.295 223.101,185.256 219.173,179.679 208.622 C 179.273 207.855,178.933 207.427,178.924 207.672 M87.109 282.650 C 87.109 282.971,86.735 283.968,86.278 284.864 C 85.295 286.790,83.855 290.193,81.194 296.875 C 80.124 299.561,78.821 302.747,78.297 303.955 C 77.773 305.164,77.344 306.350,77.344 306.591 C 77.344 306.832,76.734 308.199,75.989 309.627 C 75.244 311.056,74.744 312.402,74.878 312.618 C 75.016 312.841,74.925 312.891,74.670 312.733 C 74.039 312.343,74.085 313.856,74.720 314.383 C 75.385 314.935,76.232 314.402,75.801 313.704 C 75.393 313.043,76.345 310.260,78.419 306.055 C 79.267 304.336,80.261 301.963,80.628 300.781 C 82.226 295.645,87.811 283.223,88.528 283.211 C 88.771 283.207,90.155 283.649,91.605 284.195 C 94.734 285.373,95.412 285.271,92.476 284.065 C 88.112 282.271,87.109 282.007,87.109 282.650 M96.875 286.203 C 98.057 286.744,100.078 287.581,101.367 288.062 C 126.144 297.321,127.080 297.878,124.609 301.893 C 123.965 302.940,123.438 304.185,123.438 304.658 C 123.438 305.465,122.710 307.459,121.076 311.133 C 120.693 311.992,120.254 313.308,120.100 314.057 C 119.946 314.806,119.593 315.772,119.316 316.205 C 118.862 316.916,118.592 318.303,118.707 319.336 C 118.735 319.589,123.957 319.728,133.496 319.729 C 141.606 319.731,145.263 319.683,141.622 319.622 C 136.716 319.541,134.844 319.374,134.395 318.979 C 133.761 318.422,128.053 318.410,121.944 318.953 L 119.082 319.207 119.209 318.100 C 119.281 317.470,119.547 317.034,119.824 317.090 C 120.093 317.144,120.313 316.943,120.313 316.644 C 120.313 316.345,120.652 315.342,121.067 314.415 C 121.482 313.488,121.742 312.602,121.646 312.445 C 121.549 312.288,121.820 311.536,122.248 310.773 C 122.680 310.004,122.915 309.095,122.775 308.731 C 122.622 308.332,122.680 308.172,122.923 308.322 C 123.143 308.458,123.521 308.135,123.763 307.605 C 124.047 306.982,124.062 306.641,123.806 306.641 C 123.427 306.641,124.021 305.136,124.578 304.688 C 124.939 304.397,125.928 302.194,125.849 301.855 C 125.812 301.694,125.967 301.563,126.195 301.563 C 126.422 301.563,126.507 301.398,126.383 301.197 C 126.258 300.996,126.314 300.129,126.507 299.271 L 126.858 297.711 122.511 295.938 C 120.120 294.963,114.736 292.827,110.547 291.192 C 106.357 289.556,101.212 287.530,99.113 286.687 C 94.837 284.972,93.599 284.704,96.875 286.203 M295.164 286.334 C 292.550 287.135,292.188 287.944,292.188 292.976 C 292.188 297.154,292.258 297.597,293.029 298.279 L 293.871 299.023 293.250 298.047 C 292.063 296.181,292.501 288.839,293.869 287.661 C 295.213 286.506,297.002 286.442,298.716 287.487 L 299.971 288.252 300.099 292.075 L 300.227 295.898 300.309 292.163 C 300.416 287.259,298.655 285.264,295.164 286.334 M299.852 297.411 C 299.599 298.420,298.262 299.105,296.094 299.338 C 294.730 299.484,294.730 299.484,296.289 299.545 C 298.198 299.620,300.391 298.405,300.391 297.271 C 300.391 296.211,300.137 296.278,299.852 297.411 M133.722 311.523 C 133.724 313.027,133.794 313.595,133.879 312.784 C 133.963 311.974,133.962 310.743,133.876 310.050 C 133.789 309.356,133.720 310.020,133.722 311.523 M200.488 315.436 C 199.055 316.048,198.749 316.552,200.098 316.079 C 200.581 315.910,201.592 315.812,202.344 315.863 C 203.096 315.914,203.931 315.969,204.199 315.986 C 204.912 316.029,204.801 318.017,203.909 321.225 C 202.998 324.498,200.527 335.819,200.228 338.086 C 200.115 338.945,200.371 338.154,200.798 336.328 C 201.224 334.502,202.472 329.283,203.572 324.730 C 205.644 316.146,205.704 315.254,204.211 315.205 C 203.721 315.189,202.969 315.113,202.539 315.035 C 202.109 314.957,201.187 315.137,200.488 315.436 M77.111 315.955 C 77.266 316.207,77.168 316.406,76.889 316.406 C 76.591 316.406,76.735 316.752,77.246 317.263 C 77.718 317.735,78.240 317.984,78.407 317.817 C 78.573 317.651,78.405 317.292,78.033 317.019 C 77.661 316.747,77.453 316.427,77.571 316.309 C 77.689 316.191,77.572 315.961,77.309 315.799 C 77.005 315.611,76.933 315.667,77.111 315.955 M195.898 318.105 L 193.164 319.727 178.711 319.931 L 164.258 320.136 178.761 320.224 C 190.747 320.297,193.342 320.218,193.714 319.769 C 193.962 319.471,195.011 318.862,196.046 318.417 C 197.080 317.972,198.151 317.338,198.425 317.007 C 199.079 316.219,199.077 316.220,195.898 318.105 M86.308 326.345 C 86.824 326.895,87.304 327.344,87.376 327.344 C 87.728 327.344,86.464 325.767,85.955 325.572 C 85.633 325.448,85.792 325.796,86.308 326.345 M324.609 332.079 C 323.248 333.272,323.248 333.274,324.500 332.441 C 325.192 331.981,325.861 331.437,325.988 331.232 C 326.365 330.622,326.052 330.814,324.609 332.079 M199.217 342.088 C 198.288 346.121,200.861 345.707,176.899 345.679 C 165.282 345.665,155.679 345.753,155.558 345.874 C 155.437 345.995,165.030 346.094,176.874 346.094 C 196.994 346.094,198.432 346.049,198.751 345.410 C 199.202 344.504,200.116 340.220,199.902 340.007 C 199.810 339.915,199.502 340.851,199.217 342.088 M103.227 341.474 C 103.196 341.894,103.368 342.171,103.611 342.091 C 104.278 341.868,104.399 341.138,103.807 340.911 C 103.490 340.789,103.262 341.010,103.227 341.474 M148.519 345.964 C 147.058 346.684,145.699 348.238,145.712 349.174 C 145.717 349.521,146.014 349.210,146.372 348.483 C 146.830 347.553,147.609 346.888,149.000 346.241 C 150.087 345.734,150.713 345.322,150.391 345.325 C 150.068 345.328,149.226 345.615,148.519 345.964 M145.254 351.465 C 145.221 351.841,145.233 352.633,145.279 353.226 C 145.342 354.031,145.135 354.395,144.459 354.666 C 143.572 355.022,143.575 355.029,144.629 355.053 C 145.674 355.077,145.703 355.019,145.703 352.930 C 145.703 350.937,145.388 349.909,145.254 351.465 M129.517 355.091 C 127.222 355.309,126.284 355.568,125.904 356.088 C 125.104 357.183,126.100 357.499,127.376 356.555 C 128.219 355.932,129.098 355.748,131.413 355.711 C 133.041 355.685,134.373 355.544,134.374 355.397 C 134.374 355.250,134.858 355.057,135.449 354.967 C 137.297 354.687,132.772 354.782,129.517 355.091 M281.250 360.441 C 281.572 360.564,281.924 360.780,282.031 360.922 C 282.139 361.065,282.666 360.953,283.203 360.674 C 284.134 360.191,284.098 360.169,282.422 360.193 C 281.455 360.207,280.928 360.318,281.250 360.441 " stroke="none" fill="#c3b99f" fill-rule="evenodd"></path><path id="path7" d="M212.216 136.719 C 212.216 137.686,212.292 138.081,212.385 137.598 C 212.478 137.114,212.478 136.323,212.385 135.840 C 212.292 135.356,212.216 135.752,212.216 136.719 M248.218 143.457 L 247.070 144.727 248.340 143.579 C 249.038 142.948,249.609 142.377,249.609 142.310 C 249.609 142.008,249.287 142.274,248.218 143.457 M239.063 142.700 C 239.063 142.768,239.634 143.339,240.332 143.970 L 241.602 145.117 240.454 143.848 C 239.385 142.664,239.063 142.399,239.063 142.700 M175.130 198.047 C 174.664 198.235,171.324 199.109,167.708 199.990 C 156.162 202.803,149.984 204.411,150.137 204.564 C 150.219 204.646,156.317 203.213,163.690 201.380 C 171.062 199.547,177.231 198.047,177.398 198.047 C 177.565 198.047,177.761 199.409,177.835 201.074 L 177.968 204.102 178.046 200.879 L 178.125 197.656 177.051 197.681 C 176.460 197.695,175.596 197.859,175.130 198.047 M235.547 200.918 C 236.514 201.212,239.238 201.994,241.602 202.656 C 268.266 210.129,284.766 219.804,295.860 234.473 L 296.968 235.938 321.824 235.843 L 346.680 235.748 321.875 235.637 L 297.070 235.526 295.508 233.304 C 288.712 223.641,275.245 214.402,258.442 207.876 C 250.965 204.972,237.950 200.900,234.961 200.529 C 234.201 200.435,234.407 200.572,235.547 200.918 M142.773 206.590 C 120.721 213.624,108.764 221.205,99.830 233.817 C 94.905 240.769,93.562 243.738,81.460 274.414 C 80.528 276.777,79.855 278.857,79.965 279.036 C 80.372 279.701,90.154 283.414,90.523 283.045 C 90.608 282.960,90.006 282.677,89.186 282.416 C 85.161 281.137,80.469 279.080,80.469 278.596 C 80.469 278.302,81.457 275.571,82.664 272.527 C 83.871 269.483,85.437 265.498,86.142 263.672 C 91.129 250.765,91.701 249.418,95.121 242.536 C 103.744 225.183,117.164 215.138,142.383 207.160 C 148.762 205.142,149.865 204.751,149.219 204.735 C 148.896 204.728,145.996 205.562,142.773 206.590 M232.544 209.797 C 232.080 210.644,231.864 211.236,232.064 211.113 C 232.497 210.845,233.709 208.578,233.519 208.389 C 233.447 208.317,233.008 208.950,232.544 209.797 M230.249 212.988 L 229.102 214.258 230.371 213.111 C 231.554 212.041,231.820 211.719,231.518 211.719 C 231.451 211.719,230.880 212.290,230.249 212.988 M227.423 215.402 C 225.609 216.685,225.353 217.052,226.886 216.174 C 227.600 215.765,228.369 215.210,228.593 214.941 C 229.171 214.251,228.900 214.358,227.423 215.402 M205.176 220.592 C 205.767 220.682,206.733 220.682,207.324 220.592 C 207.915 220.503,207.432 220.430,206.250 220.430 C 205.068 220.430,204.585 220.503,205.176 220.592 M348.828 236.763 C 360.293 241.313,361.707 246.753,357.037 268.359 C 356.410 271.260,355.079 277.588,354.080 282.422 C 351.344 295.651,349.783 301.419,348.320 303.699 C 347.633 304.770,347.070 305.774,347.070 305.931 C 347.070 306.088,346.781 306.444,346.427 306.721 C 345.738 307.262,340.415 314.188,340.554 314.362 C 340.599 314.420,340.019 315.009,339.264 315.672 C 338.509 316.335,337.891 317.036,337.891 317.229 C 337.891 317.422,337.188 318.215,336.328 318.992 C 335.010 320.182,334.288 321.484,334.945 321.484 C 335.208 321.484,338.362 318.053,339.971 316.016 C 340.735 315.049,341.739 313.873,342.201 313.402 C 342.664 312.931,342.929 312.361,342.790 312.137 C 342.638 311.890,342.778 311.820,343.144 311.960 C 343.512 312.102,343.750 311.980,343.750 311.652 C 343.750 311.355,344.102 310.810,344.531 310.442 C 344.961 310.074,345.313 309.518,345.313 309.207 C 345.313 308.895,345.515 308.514,345.763 308.361 C 346.043 308.188,346.108 308.254,345.936 308.533 C 345.782 308.781,345.751 308.984,345.865 308.984 C 345.980 308.984,346.338 308.474,346.661 307.850 C 346.983 307.225,347.478 306.478,347.760 306.189 C 348.041 305.900,348.570 305.029,348.933 304.253 C 349.297 303.477,349.860 302.622,350.184 302.353 C 350.553 302.047,350.688 301.523,350.545 300.954 C 350.420 300.454,350.454 299.822,350.622 299.550 C 350.790 299.279,350.969 298.697,351.021 298.259 C 351.072 297.820,351.557 295.703,352.099 293.555 C 352.641 291.406,353.721 286.484,354.498 282.617 C 355.276 278.750,356.508 272.861,357.236 269.531 C 360.878 252.867,361.046 249.844,358.614 244.648 C 356.759 240.684,352.011 236.927,347.852 236.134 C 347.207 236.011,347.646 236.294,348.828 236.763 M223.945 243.057 C 223.059 244.201,223.004 244.665,223.850 243.859 C 224.351 243.381,224.664 242.893,224.546 242.775 C 224.427 242.656,224.157 242.783,223.945 243.057 M171.575 271.094 C 171.575 271.846,171.655 272.153,171.754 271.777 C 171.852 271.401,171.852 270.786,171.754 270.410 C 171.655 270.034,171.575 270.342,171.575 271.094 M273.080 277.102 L 272.137 278.320 273.255 277.258 C 273.870 276.674,274.294 276.125,274.198 276.040 C 274.102 275.954,273.599 276.432,273.080 277.102 M171.575 278.516 C 171.575 279.268,171.655 279.575,171.754 279.199 C 171.852 278.823,171.852 278.208,171.754 277.832 C 171.655 277.456,171.575 277.764,171.575 278.516 M91.797 283.789 C 92.334 284.096,92.949 284.347,93.164 284.347 C 93.379 284.347,93.115 284.096,92.578 283.789 C 92.041 283.482,91.426 283.231,91.211 283.231 C 90.996 283.231,91.260 283.482,91.797 283.789 M293.444 287.012 C 292.840 287.603,292.726 287.769,293.192 287.382 C 293.658 286.995,294.545 286.527,295.164 286.342 C 296.114 286.057,296.153 285.999,295.416 285.971 C 294.936 285.953,294.049 286.421,293.444 287.012 M297.656 286.212 C 299.919 287.036,300.386 288.184,300.475 293.139 L 300.559 297.852 300.683 293.196 L 300.807 288.541 299.546 287.239 C 298.852 286.523,298.011 285.951,297.677 285.968 C 297.152 285.995,297.149 286.028,297.656 286.212 M291.895 290.039 C 291.900 290.898,291.980 291.204,292.073 290.718 C 292.167 290.232,292.163 289.529,292.065 289.156 C 291.967 288.782,291.891 289.180,291.895 290.039 M133.984 290.332 C 133.984 290.601,133.464 291.787,132.828 292.969 C 131.378 295.662,131.199 297.403,132.607 295.117 L 133.569 293.555 133.605 295.703 C 133.624 296.885,133.674 302.439,133.715 308.046 C 133.795 319.086,133.890 319.587,135.888 319.473 L 136.914 319.414 135.840 319.251 C 135.249 319.162,134.766 318.851,134.766 318.561 C 134.766 318.271,134.600 317.975,134.397 317.904 C 134.167 317.822,134.165 316.693,134.393 314.890 C 134.814 311.553,134.714 289.846,134.277 289.845 C 134.116 289.844,133.984 290.063,133.984 290.332 M123.438 296.289 C 123.975 296.596,124.590 296.847,124.805 296.847 C 125.020 296.847,124.756 296.596,124.219 296.289 C 123.682 295.982,123.066 295.731,122.852 295.731 C 122.637 295.731,122.900 295.982,123.438 296.289 M125.869 297.250 C 126.788 297.842,129.971 298.947,129.488 298.507 C 129.140 298.189,128.605 297.972,125.977 297.081 C 125.286 296.847,125.273 296.866,125.869 297.250 M130.356 298.046 C 130.078 299.109,130.722 299.424,131.230 298.474 C 131.770 297.466,131.748 297.266,131.100 297.266 C 130.803 297.266,130.468 297.617,130.356 298.046 M293.264 298.730 C 293.770 299.214,294.394 299.604,294.651 299.597 C 294.907 299.591,294.766 299.391,294.336 299.152 C 293.906 298.914,293.282 298.524,292.950 298.285 C 292.617 298.047,292.758 298.247,293.264 298.730 M299.023 298.855 C 298.379 299.267,298.052 299.606,298.297 299.607 C 298.541 299.608,299.157 299.264,299.664 298.841 C 300.825 297.874,300.546 297.880,299.023 298.855 M252.472 302.930 C 252.474 304.434,252.544 305.001,252.629 304.191 C 252.713 303.380,252.712 302.150,252.626 301.456 C 252.539 300.763,252.470 301.426,252.472 302.930 M257.138 312.891 C 257.138 313.857,257.214 314.253,257.307 313.770 C 257.400 313.286,257.400 312.495,257.307 312.012 C 257.214 311.528,257.138 311.924,257.138 312.891 M200.260 315.012 C 200.082 315.476,200.219 315.523,200.948 315.245 C 201.449 315.055,202.188 314.961,202.589 315.037 C 202.991 315.113,203.721 315.188,204.212 315.204 C 204.759 315.223,205.227 315.569,205.424 316.102 C 205.726 316.918,205.755 316.901,205.913 315.809 L 206.080 314.648 203.281 314.540 C 201.096 314.456,200.433 314.559,200.260 315.012 M198.145 316.451 C 196.813 317.304,196.382 317.876,197.559 317.230 C 198.455 316.737,199.859 315.651,199.609 315.644 C 199.502 315.641,198.843 316.004,198.145 316.451 M263.867 316.433 C 263.223 316.846,262.896 317.184,263.140 317.185 C 263.385 317.187,264.000 316.842,264.508 316.419 C 265.669 315.452,265.390 315.458,263.867 316.433 M260.645 317.457 C 261.021 317.555,261.636 317.555,262.012 317.457 C 262.388 317.359,262.080 317.278,261.328 317.278 C 260.576 317.278,260.269 317.359,260.645 317.457 M286.825 320.313 C 286.825 321.279,286.901 321.675,286.994 321.191 C 287.088 320.708,287.088 319.917,286.994 319.434 C 286.901 318.950,286.825 319.346,286.825 320.313 M159.110 319.824 C 165.087 319.885,174.755 319.885,180.594 319.824 C 186.433 319.763,181.543 319.714,169.727 319.714 C 157.910 319.714,153.133 319.763,159.110 319.824 M332.429 323.235 C 331.995 323.696,331.641 324.293,331.641 324.560 C 331.641 324.828,331.438 324.921,331.190 324.767 C 330.910 324.595,330.845 324.660,331.017 324.940 C 331.173 325.192,331.071 325.395,330.785 325.401 C 330.504 325.407,329.834 326.005,329.297 326.730 C 328.760 327.455,328.214 327.983,328.084 327.903 C 327.741 327.693,321.875 333.804,321.875 334.372 C 321.875 334.634,321.620 334.751,321.308 334.631 C 320.972 334.503,320.334 334.896,319.745 335.596 C 319.198 336.247,318.750 336.676,318.750 336.550 C 318.750 336.425,316.948 337.760,314.746 339.517 C 312.544 341.274,310.790 342.871,310.850 343.065 C 310.909 343.259,310.802 343.322,310.612 343.204 C 310.163 342.927,306.055 345.991,306.055 346.602 C 306.055 346.860,305.626 347.092,305.103 347.118 C 304.579 347.144,303.854 347.532,303.491 347.980 C 303.128 348.428,302.766 348.749,302.685 348.694 C 302.605 348.638,302.012 349.115,301.367 349.752 C 300.397 350.712,300.364 350.797,301.172 350.250 C 301.709 349.886,302.635 349.362,303.229 349.085 C 303.824 348.807,304.190 348.461,304.043 348.314 C 303.896 348.167,304.038 348.047,304.359 348.047 C 304.679 348.047,305.960 347.256,307.205 346.289 C 308.450 345.322,309.604 344.531,309.768 344.531 C 309.933 344.531,310.676 343.904,311.420 343.138 C 312.165 342.372,313.020 341.708,313.320 341.662 C 314.120 341.541,314.844 341.027,314.844 340.579 C 314.844 340.364,314.641 340.314,314.393 340.467 C 314.120 340.636,314.048 340.575,314.210 340.312 C 314.357 340.073,314.715 339.969,315.005 340.080 C 315.294 340.191,315.897 339.817,316.344 339.249 C 316.790 338.681,317.314 338.313,317.508 338.433 C 317.701 338.552,318.312 338.172,318.866 337.587 C 319.420 337.002,321.306 335.205,323.058 333.594 C 326.349 330.568,334.375 322.705,334.375 322.507 C 334.375 322.063,333.072 322.550,332.429 323.235 M248.535 326.441 C 248.911 326.539,249.526 326.539,249.902 326.441 C 250.278 326.343,249.971 326.263,249.219 326.263 C 248.467 326.263,248.159 326.343,248.535 326.441 M153.423 345.979 C 153.908 346.073,154.612 346.069,154.985 345.972 C 155.358 345.874,154.961 345.797,154.102 345.802 C 153.242 345.806,152.937 345.886,153.423 345.979 M298.047 351.283 C 297.725 351.546,297.422 351.964,297.375 352.212 C 297.280 352.715,299.429 351.779,299.820 351.147 C 300.149 350.614,298.735 350.723,298.047 351.283 M293.164 354.216 C 292.520 354.583,291.954 355.085,291.908 355.331 C 291.798 355.918,293.194 355.553,293.785 354.841 C 294.033 354.542,294.478 354.297,294.774 354.297 C 295.070 354.297,295.313 354.121,295.313 353.906 C 295.313 353.337,294.501 353.454,293.164 354.216 M134.441 357.081 C 134.400 358.438,134.562 359.433,134.863 359.682 C 135.661 360.340,167.266 360.584,201.172 360.195 L 232.227 359.839 192.969 359.960 C 171.377 360.026,149.492 359.966,144.336 359.825 L 134.961 359.570 134.734 357.227 L 134.506 354.883 134.441 357.081 M136.230 355.354 C 136.714 355.447,137.505 355.447,137.988 355.354 C 138.472 355.261,138.076 355.185,137.109 355.185 C 136.143 355.185,135.747 355.261,136.230 355.354 M141.504 355.363 C 142.310 355.447,143.628 355.447,144.434 355.363 C 145.239 355.278,144.580 355.209,142.969 355.209 C 141.357 355.209,140.698 355.278,141.504 355.363 M289.844 356.208 C 289.844 356.399,289.404 356.666,288.867 356.801 C 288.330 356.936,287.891 357.229,287.891 357.452 C 287.891 357.676,287.721 357.754,287.514 357.626 C 287.307 357.498,286.795 357.737,286.375 358.156 C 285.955 358.576,285.481 358.802,285.321 358.659 C 285.162 358.516,285.157 358.618,285.312 358.887 C 285.677 359.521,286.143 359.505,286.813 358.834 C 287.110 358.537,288.096 357.915,289.003 357.452 C 289.910 356.989,290.548 356.442,290.420 356.235 C 290.129 355.764,289.844 355.750,289.844 356.208 M283.008 359.766 C 282.316 360.063,282.349 360.104,283.301 360.129 C 283.892 360.144,284.375 359.980,284.375 359.766 C 284.375 359.307,284.075 359.307,283.008 359.766 M250.195 360.156 L 232.617 360.364 249.609 360.404 C 258.955 360.427,269.941 360.324,274.023 360.176 L 281.445 359.907 274.609 359.928 C 270.850 359.940,259.863 360.042,250.195 360.156 " stroke="none" fill="#809095" fill-rule="evenodd"></path></g></svg>